<svg width="32" height="32" viewBox="0 0 32 32" fill="none" xmlns="http://www.w3.org/2000/svg">
  <!-- Olive branch background circle -->
  <circle cx="16" cy="16" r="15" fill="#22C55E" stroke="#16A34A" stroke-width="2"/>
  
  <!-- Olive leaves -->
  <path d="M8 10C10 6 12 8 14 6C16 4 18 6 20 4C22 2 24 4 24 6" stroke="#16A34A" stroke-width="2.5" fill="none" stroke-linecap="round"/>
  <path d="M8 18C10 14 12 16 14 14C16 12 18 14 20 12C22 10 24 12 24 14" stroke="#16A34A" stroke-width="2.5" fill="none" stroke-linecap="round"/>
  
  <!-- Olive fruits -->
  <circle cx="10" cy="8" r="2.5" fill="#B45309"/>
  <circle cx="14" cy="10" r="2.5" fill="#B45309"/>
  <circle cx="18" cy="8" r="2.5" fill="#B45309"/>
  <circle cx="22" cy="10" r="2.5" fill="#B45309"/>
  
  <!-- Oil drop -->
  <path d="M16 20C16 22.5 18.5 25 21 25C23.5 25 26 22.5 26 20C26 17.5 23.5 15 21 15C18.5 15 16 17.5 16 20Z" fill="#F59E0B"/>
  
  <!-- Mill symbol -->
  <rect x="12" y="22" width="8" height="6" rx="1" fill="#6B7280"/>
  <rect x="13" y="23" width="6" height="4" fill="#9CA3AF"/>
</svg>